<svg width="41" height="38" viewBox="0 0 41 38" fill="none" xmlns="http://www.w3.org/2000/svg">
<path d="M26.8761 26.125H25.1387V16.625H38.9723V26.125H34.6314" fill="#F8B84E"/>
<path d="M6.36117 21.9688H0V7.71875H25.143V21.9688H13.7444" fill="#F05542"/>
<path d="M6.83761 26.125H0.0175781V21.9688H25.1341V26.125H14.3918" fill="#34485C"/>
<path d="M10.058 22.5625C8.94422 22.5638 7.86245 22.9143 6.98238 23.5591C6.10231 24.2039 5.47375 25.1064 5.19531 26.125H14.9231C14.6446 25.106 14.0156 24.2032 13.1351 23.5584C12.2545 22.9136 11.1721 22.5633 10.058 22.5625Z" fill="#576D7E"/>
<path d="M13.828 27.3125C13.828 28.2573 13.4307 29.1635 12.7234 29.8316C12.0161 30.4997 11.0568 30.875 10.0566 30.875C9.05635 30.875 8.09707 30.4997 7.38979 29.8316C6.6825 29.1635 6.28516 28.2573 6.28516 27.3125C6.28516 26.3677 6.6825 25.4615 7.38979 24.7934C8.09707 24.1253 9.05635 23.75 10.0566 23.75C11.0568 23.75 12.0161 24.1253 12.7234 24.7934C13.4307 25.4615 13.828 26.3677 13.828 27.3125Z" fill="#2B4255"/>
<path fill-rule="evenodd" clip-rule="evenodd" d="M0.0175781 23.75V24.9375H2.50548C2.67219 24.9375 2.83217 24.8749 2.95005 24.7635C3.06793 24.6522 3.13405 24.5012 3.13405 24.3438C3.13405 24.1863 3.06793 24.0352 2.95005 23.9238C2.83217 23.8125 2.67219 23.75 2.50548 23.75H0.0175781Z" fill="#F17F53"/>
<path d="M11.3151 27.3125C11.3151 27.6274 11.1826 27.9295 10.9469 28.1522C10.7111 28.3749 10.3913 28.5 10.0579 28.5C9.72451 28.5 9.40475 28.3749 9.16899 28.1522C8.93323 27.9295 8.80078 27.6274 8.80078 27.3125C8.80078 26.9976 8.93323 26.6955 9.16899 26.4728C9.40475 26.2501 9.72451 26.125 10.0579 26.125C10.3913 26.125 10.7111 26.2501 10.9469 26.4728C11.1826 26.6955 11.3151 26.9976 11.3151 27.3125Z" fill="#576D7E"/>
<path d="M25.1377 9.5H32.3412L38.9626 16.6488L25.1289 16.625L25.1377 9.5Z" fill="#4BBFEB"/>
<path fill-rule="evenodd" clip-rule="evenodd" d="M27.6579 17.2175C27.4912 17.2175 27.3312 17.2801 27.2133 17.3915C27.0954 17.5028 27.0293 17.6538 27.0293 17.8113C27.0293 17.9688 27.0954 18.1199 27.2133 18.2312C27.3312 18.3426 27.4912 18.405 27.6579 18.405H28.9325C29.0992 18.405 29.2592 18.3426 29.3771 18.2312C29.495 18.1199 29.5611 17.9688 29.5611 17.8113C29.5611 17.6538 29.495 17.5028 29.3771 17.3915C29.2592 17.2801 29.0992 17.2175 28.9325 17.2175H27.6579Z" fill="#2B4255"/>
<path fill-rule="evenodd" clip-rule="evenodd" d="M3.1322 8.90486C3.04965 8.9061 2.96826 8.92273 2.89249 8.95371C2.81673 8.9847 2.74813 9.02946 2.69069 9.08548C2.63326 9.1415 2.58801 9.20764 2.55764 9.28016C2.52728 9.35268 2.51242 9.4302 2.51375 9.50818V20.186C2.51375 20.3435 2.57987 20.4946 2.69775 20.606C2.81563 20.7173 2.97562 20.7798 3.14233 20.7798C3.30904 20.7798 3.46887 20.7173 3.58675 20.606C3.70463 20.4946 3.7709 20.3435 3.7709 20.186V9.50818C3.77226 9.4286 3.75663 9.34958 3.72502 9.27581C3.6934 9.20204 3.64648 9.13494 3.5869 9.07867C3.52733 9.02239 3.45629 8.97807 3.3782 8.9482C3.3001 8.91834 3.21644 8.90358 3.1322 8.90486ZM6.90364 8.90486C6.8211 8.9061 6.7397 8.92273 6.66394 8.95371C6.58818 8.9847 6.51958 9.02946 6.46214 9.08548C6.4047 9.1415 6.35945 9.20764 6.32909 9.28016C6.29872 9.35268 6.28387 9.4302 6.2852 9.50818V20.186C6.2852 20.3435 6.35132 20.4946 6.4692 20.606C6.58708 20.7173 6.74706 20.7798 6.91377 20.7798C7.08048 20.7798 7.24031 20.7173 7.35819 20.606C7.47607 20.4946 7.54235 20.3435 7.54235 20.186V9.50818C7.54371 9.4286 7.52807 9.34958 7.49646 9.27581C7.46485 9.20204 7.41792 9.13494 7.35835 9.07867C7.29877 9.02239 7.22774 8.97807 7.14964 8.9482C7.07154 8.91834 6.98789 8.90358 6.90364 8.90486ZM10.6751 8.90486C10.5925 8.9061 10.5111 8.92273 10.4354 8.95371C10.3596 8.9847 10.291 9.02946 10.2336 9.08548C10.1761 9.1415 10.1309 9.20764 10.1005 9.28016C10.0702 9.35268 10.0553 9.4302 10.0566 9.50818V20.186C10.0566 20.3435 10.1228 20.4946 10.2406 20.606C10.3585 20.7173 10.5185 20.7798 10.6852 20.7798C10.8519 20.7798 11.0118 20.7173 11.1296 20.606C11.2475 20.4946 11.3138 20.3435 11.3138 20.186V9.50818C11.3152 9.4286 11.2995 9.34958 11.2679 9.27581C11.2363 9.20204 11.1894 9.13494 11.1298 9.07867C11.0702 9.02239 10.9992 8.97807 10.9211 8.9482C10.843 8.91834 10.7593 8.90358 10.6751 8.90486ZM14.4465 8.90486C14.364 8.9061 14.2826 8.92273 14.2068 8.95371C14.1311 8.9847 14.0625 9.02946 14.005 9.08548C13.9476 9.1415 13.9023 9.20764 13.872 9.28016C13.8416 9.35268 13.8268 9.4302 13.8281 9.50818V20.186C13.8281 20.3435 13.8942 20.4946 14.0121 20.606C14.13 20.7173 14.29 20.7798 14.4567 20.7798C14.6234 20.7798 14.7832 20.7173 14.9011 20.606C15.019 20.4946 15.0852 20.3435 15.0852 20.186V9.50818C15.0866 9.4286 15.071 9.34958 15.0394 9.27581C15.0077 9.20204 14.9608 9.13494 14.9012 9.07867C14.8417 9.02239 14.7706 8.97807 14.6925 8.9482C14.6144 8.91834 14.5308 8.90358 14.4465 8.90486ZM18.218 8.90486C18.1354 8.9061 18.054 8.92273 17.9783 8.95371C17.9025 8.9847 17.8339 9.02946 17.7765 9.08548C17.719 9.1415 17.6738 9.20764 17.6434 9.28016C17.6131 9.35268 17.5982 9.4302 17.5995 9.50818V20.186C17.5995 20.3435 17.6657 20.4946 17.7835 20.606C17.9014 20.7173 18.0614 20.7798 18.2281 20.7798C18.3948 20.7798 18.5546 20.7173 18.6725 20.606C18.7904 20.4946 18.8567 20.3435 18.8567 20.186V9.50818C18.858 9.4286 18.8424 9.34958 18.8108 9.27581C18.7792 9.20204 18.7323 9.13494 18.6727 9.07867C18.6131 9.02239 18.5421 8.97807 18.464 8.9482C18.3859 8.91834 18.3022 8.90358 18.218 8.90486ZM21.9894 8.90486C21.9069 8.9061 21.8255 8.92273 21.7497 8.95371C21.674 8.9847 21.6054 9.02946 21.5479 9.08548C21.4905 9.1415 21.4452 9.20764 21.4149 9.28016C21.3845 9.35268 21.3696 9.4302 21.371 9.50818V20.186C21.371 20.3435 21.4371 20.4946 21.555 20.606C21.6729 20.7173 21.8328 20.7798 21.9996 20.7798C22.1663 20.7798 22.3261 20.7173 22.444 20.606C22.5619 20.4946 22.6281 20.3435 22.6281 20.186V9.50818C22.6295 9.4286 22.6139 9.34958 22.5822 9.27581C22.5506 9.20204 22.5037 9.13494 22.4441 9.07867C22.3846 9.02239 22.3135 8.97807 22.2354 8.9482C22.1573 8.91834 22.0737 8.90358 21.9894 8.90486ZM38.971 24.3436V23.1561H36.4831C36.3164 23.1561 36.1565 23.2185 36.0386 23.3299C35.9207 23.4412 35.8546 23.5923 35.8546 23.7498C35.8546 23.9073 35.9207 24.0583 36.0386 24.1696C36.1565 24.281 36.3164 24.3436 36.4831 24.3436H38.971Z" fill="#F17F53"/>
<path d="M25.7701 9.48829H25.1415L25.1289 16.6037C25.1289 16.7612 25.195 16.9122 25.3129 17.0235C25.4308 17.1349 25.5908 17.1975 25.7575 17.1975L38.3339 17.2176C38.4543 17.2173 38.5722 17.1844 38.6733 17.1227C38.7745 17.0609 38.8548 16.973 38.9046 16.8694C38.9544 16.7658 38.9715 16.6509 38.9542 16.5383C38.9368 16.4258 38.8857 16.3202 38.8067 16.2344L32.7295 9.67934C32.6708 9.61558 32.5986 9.56439 32.5173 9.52917C32.436 9.49394 32.3475 9.4755 32.2581 9.4751C29.5288 9.4751 25.765 9.48829 25.765 9.48829H25.7701ZM26.3986 10.6639H31.9803L36.951 16.0278L26.391 16.0111L26.4035 10.6626L26.3986 10.6639Z" fill="#F8B84E"/>
<path fill-rule="evenodd" clip-rule="evenodd" d="M29.5332 10.0925V17.2175H30.7903V10.0925H29.5332Z" fill="#F8B84E"/>
<path d="M30.8007 22.5625C29.6865 22.5633 28.6042 22.9136 27.7236 23.5584C26.843 24.2032 26.2141 25.106 25.9355 26.125H35.6646C35.3861 25.1062 34.7574 24.2035 33.8771 23.5587C32.9967 22.914 31.9147 22.5635 30.8007 22.5625Z" fill="#576D7E"/>
<path d="M34.5722 27.3125C34.5722 28.2573 34.1748 29.1635 33.4676 29.8316C32.7603 30.4997 31.801 30.875 30.8007 30.875C29.8005 30.875 28.8412 30.4997 28.1339 29.8316C27.4266 29.1635 27.0293 28.2573 27.0293 27.3125C27.0293 26.3677 27.4266 25.4615 28.1339 24.7934C28.8412 24.1253 29.8005 23.75 30.8007 23.75C31.801 23.75 32.7603 24.1253 33.4676 24.7934C34.1748 25.4615 34.5722 26.3677 34.5722 27.3125Z" fill="#2B4255"/>
<path d="M32.0573 27.3125C32.0573 27.6274 31.9248 27.9295 31.6891 28.1522C31.4533 28.3749 31.1335 28.5 30.8001 28.5C30.4667 28.5 30.1469 28.3749 29.9112 28.1522C29.6754 27.9295 29.543 27.6274 29.543 27.3125C29.543 26.9976 29.6754 26.6955 29.9112 26.4728C30.1469 26.2501 30.4667 26.125 30.8001 26.125C31.1335 26.125 31.4533 26.2501 31.6891 26.4728C31.9248 26.6955 32.0573 26.9976 32.0573 27.3125Z" fill="#576D7E"/>
</svg>
